<svg xmlns="http://www.w3.org/2000/svg" width="600" height="600" viewBox="0 0 600 600">
  <rect width="600" height="600" fill="#f5f5f5"/>
  <g transform="translate(100, 100) scale(0.8)">
    <!-- Dunk shoe outline -->
    <path d="M100,200 C100,200 150,150 250,150 C350,150 400,200 450,200 C500,200 500,250 450,300 C400,350 300,350 200,300 C100,250 100,200 100,200 Z" fill="#fff" stroke="#111" stroke-width="8"/>
    
    <!-- Shoe panels -->
    <path d="M150,200 C150,200 200,170 250,170 C300,170 350,200 350,200" fill="#080" stroke="#111" stroke-width="3"/>
    <path d="M350,200 C350,200 400,200 450,200 C450,200 450,250 400,300 C350,250 350,200 350,200 Z" fill="#00f" stroke="#111" stroke-width="3"/>
    <path d="M150,200 C150,200 150,250 200,300 C250,320 300,320 350,300 C350,250 350,200 350,200 C300,250 250,250 200,250 C150,250 150,200 150,200 Z" fill="#fff" stroke="#111" stroke-width="3"/>
    
    <!-- Nike swoosh -->
    <path d="M200,220 C250,180 300,200 350,250 C300,200 250,230 200,270" fill="#111"/>
    
    <!-- Shoe sole -->
    <path d="M100,200 C100,200 150,280 250,300 C350,320 450,300 450,300" stroke="#111" stroke-width="8" fill="none"/>
  </g>
  <text x="300" y="450" font-family="Arial" font-size="24" text-anchor="middle" fill="#111">Nike Dunk Low</text>
  <text x="300" y="480" font-family="Arial" font-size="18" text-anchor="middle" fill="#757575">Men's Shoes</text>
  <text x="300" y="510" font-family="Arial" font-size="20" font-weight="bold" text-anchor="middle" fill="#111">$110</text>
</svg>