<svg xmlns="http://www.w3.org/2000/svg" width="600" height="600" viewBox="0 0 600 600">
  <rect width="600" height="600" fill="#f5f5f5"/>
  <g transform="translate(100, 100) scale(0.8)">
    <path d="M400,200 C400,200 350,100 250,100 C150,100 100,200 100,200 C100,200 150,300 250,300 C350,300 400,200 400,200 Z" fill="#111" stroke="#111" stroke-width="10"/>
    <path d="M250,100 C200,100 150,150 150,200 C150,250 200,300 250,300 C300,300 350,250 350,200 C350,150 300,100 250,100 Z" fill="#fff" stroke="#111" stroke-width="5"/>
    <path d="M250,150 C225,150 200,175 200,200 C200,225 225,250 250,250 C275,250 300,225 300,200 C300,175 275,150 250,150 Z" fill="#111"/>
    <path d="M100,200 L50,250 M100,200 L50,150" stroke="#111" stroke-width="8"/>
    <path d="M400,200 L450,250 M400,200 L450,150" stroke="#111" stroke-width="8"/>
  </g>
  <text x="300" y="450" font-family="Arial" font-size="24" text-anchor="middle" fill="#111">Nike Air Max 270</text>
  <text x="300" y="480" font-family="Arial" font-size="18" text-anchor="middle" fill="#757575">Men's Shoes</text>
  <text x="300" y="510" font-family="Arial" font-size="20" font-weight="bold" text-anchor="middle" fill="#111">$150</text>
</svg>